<?xml version="1.0" encoding="utf-8"?>
<!-- Generator: Adobe Illustrator 26.3.1, SVG Export Plug-In . SVG Version: 6.00 Build 0)  -->
<svg version="1.1" id="Layer_1" xmlns="http://www.w3.org/2000/svg" xmlns:xlink="http://www.w3.org/1999/xlink" x="0px" y="0px"
	 viewBox="0 0 48 48" style="enable-background:new 0 0 48 48;" xml:space="preserve">
<style type="text/css">
	.st0{stroke:#000000;stroke-width:6;stroke-miterlimit:10;}
</style>
<path class="st0" d="M42.6,19.2L25.1,36.7c-0.2,0.2-0.3,0.3-0.5,0.4c-0.2,0.1-0.4,0.1-0.5,0.1s-0.4,0-0.5-0.1
	c-0.2-0.1-0.3-0.2-0.5-0.4L5.4,19.2c-0.3-0.4-0.5-0.8-0.5-1.4s0.2-1,0.6-1.4s0.9-0.6,1.4-0.6s1,0.2,1.4,0.6L24,32.1l15.7-15.7
	c0.4-0.4,0.9-0.6,1.4-0.6c0.6,0,1,0.2,1.4,0.6c0.4,0.4,0.6,0.9,0.6,1.4C43.2,18.4,43,18.8,42.6,19.2z"/>
</svg>
