<?xml version="1.0" encoding="utf-8"?>
<!-- Generator: Adobe Illustrator 26.3.1, SVG Export Plug-In . SVG Version: 6.00 Build 0)  -->
<svg version="1.1" id="Layer_2_00000047783124504198131170000010611944741082029486_"
	 xmlns="http://www.w3.org/2000/svg" xmlns:xlink="http://www.w3.org/1999/xlink" x="0px" y="0px" viewBox="0 0 24.9 39.1"
	 style="enable-background:new 0 0 24.9 39.1;" xml:space="preserve">
<style type="text/css">
	.st0{fill:#AF2240;}
</style>
<path class="st0" d="M12.5,38.2c-0.6,0-1-0.4-1-1V21c0-0.6,0.4-1,1-1s1,0.4,1,1v16.2C13.5,37.8,13,38.2,12.5,38.2z"/>
<path class="st0" d="M12.5,21.1C5.6,21.1,0,15.3,0,8.1c0-2.8,0.8-5.4,2.4-7.7C2.6,0.2,2.9,0,3.2,0l0,0l18.5,0c0.3,0,0.6,0.2,0.8,0.4
	c1.6,2.2,2.4,4.9,2.4,7.7C24.9,15.3,19.3,21.1,12.5,21.1z M3.7,2C2.6,3.8,2,5.9,2,8.1c0,6.1,4.7,11,10.5,11c5.8,0,10.5-4.9,10.5-11
	c0-2.2-0.6-4.3-1.7-6.1C21.2,2,3.7,2,3.7,2z"/>
<path class="st0" d="M1.6,7.4c0,0,4-4.4,7.4-1s4.6,5.1,8.1,4.1s6.5-0.3,6.5-0.3s-1.8,9.8-11.3,9.8S1,11.4,1,8.1
	C1,8.1,1.6,7.4,1.6,7.4z"/>
<path class="st0" d="M21,39.1H3.8c-0.5,0-0.9-0.4-1-0.9c0-0.5,0.3-1,0.8-1.1l8.6-1.6c0.1,0,0.2,0,0.4,0l8.6,1.6
	c0.5,0.1,0.9,0.6,0.8,1.1C21.9,38.7,21.5,39.1,21,39.1z"/>
</svg>
