<?xml version="1.0" encoding="utf-8"?>
<!-- Generator: Adobe Illustrator 26.3.1, SVG Export Plug-In . SVG Version: 6.00 Build 0)  -->
<svg version="1.1" id="Layer_1" xmlns="http://www.w3.org/2000/svg" xmlns:xlink="http://www.w3.org/1999/xlink" x="0px" y="0px"
	 viewBox="0 0 43.5 34.2" style="enable-background:new 0 0 43.5 34.2;" xml:space="preserve">
<style type="text/css">
	.st0{fill:#4FBF4C;}
</style>
<g id="Layer_1_00000166651306312027407350000012092270239889639083_">
</g>
<g>
	<path class="st0" d="M16.7,26.3c2.2-4.9,5.1-9.3,8.8-13.2c-0.3-0.3-0.5-0.5-0.8-0.8c-5.9,5.6-10,12.2-12.8,19.8
		c-0.9-0.3-1.7-0.6-2.6-0.8c1-2.7,2.3-5.1,3.7-7.6c-0.1-0.1-0.2-0.2-0.3-0.4C9,19.9,9.1,14,11.7,10.5c1.9-2.6,4.5-4,7.5-4.7
		c3.1-0.6,6.1-1.1,9.1-2.2c1.3-0.5,2.6-1,4-1.5c0.3,1.1,0.6,2.2,0.9,3.3c0.8,3.4,1.2,6.8,1,10.2c-0.1,2.2-0.5,4.3-1.5,6.2
		c-1.9,3.5-5,5.3-8.9,5.8C21.3,28,19,27.4,16.7,26.3z"/>
</g>
</svg>
