<?xml version="1.0" encoding="utf-8"?>
<!-- Generator: Adobe Illustrator 26.3.1, SVG Export Plug-In . SVG Version: 6.00 Build 0)  -->
<svg version="1.1" id="Layer_1" xmlns="http://www.w3.org/2000/svg" xmlns:xlink="http://www.w3.org/1999/xlink" x="0px" y="0px"
	 viewBox="0 0 43.5 27.2" style="enable-background:new 0 0 43.5 27.2;" xml:space="preserve">
<style type="text/css">
	.st0{fill:#727BAA;}
</style>
<path class="st0" d="M43.5,13.6C43.4,13.6,43.4,13.6,43.5,13.6c-1.3,1.2-2.4,2.5-3.6,3.7l2.8,2.8c-0.9,0.7-1.6,1.3-2.4,1.9
	c-3.8,2.5-8,4.2-12.6,5c-2.8,0.5-5.7-0.6-8.4-1.4c-0.6-0.2-1,0.5-1.6,0.7c-2.2,0.7-4.4,0.8-6.7,0.9c0.3-0.7,0.6-1.3,0.8-2
	c0.2-0.6,0.4-1.1,0.6-1.7c0-0.1,0-0.3-0.1-0.4c-1.5-1.1-3-2.2-4.5-3.3c0,0,0,0-0.1,0C6,22.7,3.4,24.3,0,24.8c3.2-5.5,3-11,0-16.5
	c1.6,0.2,3,0.7,4.4,1.5c1.4,0.8,2.4,1.9,3.1,3.3l4.7-3.4L10,6.6c0.7-0.5,1.3-1,2-1.6c2.1-1.6,4.1-3.2,6.2-4.9
	C18.4,0,18.5,0,18.8,0.1c2.8,1.1,5.1,2.8,7,5.1c0.2,0.2,0.4,0.3,0.6,0.3c3,0.2,5.9,0.7,8.6,1.9c2.9,1.2,5.4,3,7.6,5.3
	c0.3,0.3,0.6,0.5,0.8,0.8L43.5,13.6L43.5,13.6z M33.3,11c-1,0.2-1.7,1.3-1.5,2.3c0.2,1.1,1.2,1.8,2.3,1.7c1-0.1,1.9-1.1,1.8-2.1
	c0-0.9-0.8-1.9-1.5-1.9C34.4,11,34,10.9,33.3,11z"/>
</svg>
