<?xml version="1.0" encoding="utf-8"?>
<!-- Generator: Adobe Illustrator 26.3.1, SVG Export Plug-In . SVG Version: 6.00 Build 0)  -->
<svg version="1.1" xmlns="http://www.w3.org/2000/svg" xmlns:xlink="http://www.w3.org/1999/xlink" x="0px" y="0px"
	 viewBox="0 0 48 48" style="enable-background:new 0 0 48 48;" xml:space="preserve">
<style type="text/css">
	.st0{fill:#D390A5;}
</style>
<g id="Layer_1">
	<g>
		<path class="st0" d="M45.8,27.4c-0.1-0.2-0.2-0.4-0.5-0.3c-1,0.4-2,0-2.4-1c-0.1-0.4-0.3-0.7-0.4-1.1c-0.3-1-0.7-2-1.7-2.6
			c1.9-0.2,3.5-1,4.6-2.6c1.2-1.7,0.7-3.4-0.1-5.2c-0.7,1.7-2,2.5-3.6,3c-0.4,0.1-0.8,0.2-1.2,0.3c-1.4,0.4-2.5,1.2-3.1,2.6
			c-0.2,0.6-0.3,1.1-0.5,1.8c-0.1-0.4-0.2-0.7-0.2-1c-0.1-1.6,0.4-3,1.2-4.2c0.2-0.2,0.2-0.4,0-0.7c-0.5-0.8-1.2-1.4-2-2
			c-2.9-2-6.1-3-9.5-3.4c-3.2-0.4-6.4-0.1-9.5,0.9c-2.8,0.8-5.2,2.2-7.1,4.5c-0.4,0.5-0.8,1.1-1.2,1.7c-0.8-0.4-1.4-1.1-1.9-1.7
			C7.2,16.2,7.7,16,8,15.7c1-0.6,1.5-2.1,1.1-3.1c-0.4-1-1.5-1.7-2.5-1.6c-1.2,0.1-2.3,0.8-2.6,1.9c-0.2,0.6-0.1,1.3-0.2,1.9
			c-0.6-0.2-1.1-0.6-1.5-1.2c-0.1-0.1-0.2-0.2-0.3-0.2c-0.1,0.1-0.2,0.2-0.2,0.4c-0.1,0.8,0.1,1.5,0.8,2c0.5,0.4,1.1,0.6,1.7,0.8
			c0.3,0.1,0.5,0.2,0.6,0.5c0.6,1.3,1.4,2.4,2.5,3.3c0.1,0.1,0.1,0.3,0.1,0.4c-0.1,0.8-0.3,1.6-0.3,2.4c0,3.3,0.4,6.5,1.1,9.7
			c0.6,2.5,1.4,5,2.6,7.3c0.1,0.1,0.2,0.3,0.3,0.3c0.8,0,1.6,0,2.5,0c0.4-2.2,0.7-4.4,1.1-6.6c0.1,0,0.2,0,0.3,0
			c1.1,0.2,2.2,0.5,3.4,0.5c2.9,0.2,5.8,0.3,8.7,0.5c0.3,0,0.4,0.1,0.5,0.4c0.6,1.7,1.4,3.4,2.3,5c0.5,0.9,1.1,1.2,2,1.1h0
			c0.4,0,0.5-0.2,0.5-0.5c0-1.8,0-3.5,0-5.2v-0.5c0.4,0,0.8-0.1,1.3-0.1c1.9-0.1,3.8-0.3,5.6-0.8c1.6-0.4,3.1-0.9,4.5-1.8
			c1-0.6,1.7-1.3,1.9-2.5c0-0.2,0.1-0.4,0.2-0.6v-0.9C46.1,28.2,46,27.8,45.8,27.4z M5.8,14.8c-0.1-0.4-0.2-0.8-0.1-1.2
			c0-0.6,0.5-1,1.1-0.9c0.6,0,0.9,0.4,1,1c0,0.5-0.4,1-1,1C6.4,14.7,6.1,14.8,5.8,14.8z M39.7,27.8c-0.5,0-1.1-0.6-1.1-1.1
			c0-0.6,0.6-1.1,1.1-1.1c0.5,0,1.1,0.6,1.1,1.1C40.8,27.2,40.2,27.8,39.7,27.8z"/>
		<path class="st0" d="M16.7,36.2c1.4,0.2,2.8,0.5,4.2,0.7c0.2,1.2,0.5,2.4,0.7,3.6c-0.7,0-1.3,0-1.9,0c-0.1,0-0.2-0.1-0.3-0.1
			C18.3,39.1,17.3,37.8,16.7,36.2z"/>
		<path class="st0" d="M34.2,36.9c1.1-0.2,2.2-0.4,3.3-0.6c0.2,1.4,0.4,2.7,0.5,4.2c-0.5,0-1,0-1.6,0c-0.1,0-0.2-0.1-0.2-0.1
			C35.4,39.3,34.7,38.1,34.2,36.9z"/>
	</g>
</g>
<g id="Layer_2">
</g>
</svg>
