<?xml version="1.0" encoding="utf-8"?>
<!-- Generator: Adobe Illustrator 26.3.1, SVG Export Plug-In . SVG Version: 6.00 Build 0)  -->
<svg version="1.1" xmlns="http://www.w3.org/2000/svg" xmlns:xlink="http://www.w3.org/1999/xlink" x="0px" y="0px"
	 viewBox="0 0 48 48" style="enable-background:new 0 0 48 48;" xml:space="preserve">
<style type="text/css">
	.st0{fill:#B27E4B;}
</style>
<g id="Layer_1">
	<g>
		<path class="st0" d="M43.7,11.3c-0.3-0.3-0.6-0.6-0.7-1.1c-0.1-0.5-0.2-1-0.3-1.5c-0.3-1-1-1.8-1.8-2.5c0.5-0.8,0.6-1.7,0-2.5
			c-0.7-1-1.6-1.1-2.7-0.7c-0.3-1.1-1-1.7-2-2h-0.9C34.4,1.5,33.7,2,33.4,3c-2-0.4-3.1,0.7-3.5,1.7c-0.2,0.6-0.2,1.3,0,1.9
			c0.3,0.9,1,1.5,1.9,1.8c-0.8,1.7-1.5,3.4-2.3,5c-0.4,0.8-0.8,1.6-1.3,2.4c-1.6,2.6-4,4.1-7.1,4.2c-3,0.1-6-0.1-9-0.9
			c-3.4-0.9-6.7-2.1-9-5.1c0,0.1,0,0.2,0,0.3c0.2,1,0.3,2.1,0.7,3.1c0.6,1.9,1.4,3.7,3.3,4.8c-1.3,0-2.4,0.5-3.3,1.5
			C5,24,6,24.3,6.7,25.3c-1.1,0.3-2.1,0.9-2.8,1.9c1.5,0.5,2,0.9,2.9,2.2c0.7,0.9,1.3,1.9,1.9,2.8c1.4,2.1,3.3,3.8,5.8,4.5
			c1.8,0.5,3.7,0.6,5.5,0.4c4.3-0.5,7.3-2.7,8.9-6.7c0.3-0.7,0.5-1.5,0.7-2.3c0,0.1,0,0.1,0,0.1c0,0.1,0,0.2,0,0.4
			c0,1.5-0.1,2.9-0.5,4.3c-0.7,2.4-1.9,4.3-4,5.8c-2.1,1.4-4.4,2-6.9,2.3c-0.6,0.1-1.2,0.1-1.9,0.1c2,1.1,4.1,1.6,6.2,1.9
			c-0.2,0.2-0.4,0.4-0.6,0.5c-0.4,0.2-0.8,0.4-1.2,0.6c-0.9,0.5-0.9,1.6-0.1,2.2c0.7,0.5,1.5,0.5,2.2,0c0.5-0.4,0.9-0.7,1.4-1
			c1-0.6,2.1-0.6,3.1,0.1c0.4,0.3,0.8,0.6,1.3,0.9c0.3,0.2,0.7,0.4,1,0.5c0.6,0.2,1.5-0.2,1.8-0.8c0.3-0.7,0-1.5-0.6-1.9
			c-0.2-0.1-0.4-0.2-0.6-0.3c-1-0.3-2.1-0.6-3.1-0.9c-0.1,0-0.3-0.1-0.4-0.1c0.1-0.1,0.2-0.2,0.3-0.2c4.4-1.2,8.1-3.4,11-6.9
			c1.9-2.2,2.9-4.8,3-7.7c0-1.8-0.3-3.5-0.8-5.3c-0.3-1.1-0.6-2.2-0.9-3.3c-0.4-1.6-0.1-3,1.2-4.1c0.4-0.3,0.7-0.7,1-1
			c0.2-0.2,0.4-0.3,0.7-0.3c0.9,0,1.7,0.1,2.6,0.6v-0.4C44.9,13,44.5,12,43.7,11.3z M38.3,10.8c-0.5,0-1.2-0.6-1.2-1.2
			c0-0.5,0.6-1.1,1.1-1.1c0.6,0,1.2,0.6,1.2,1.2C39.4,10.2,38.8,10.8,38.3,10.8z"/>
	</g>
</g>
<g id="Layer_2">
</g>
</svg>
