<?xml version="1.0" encoding="UTF-8"?><svg id="Layer_4" xmlns="http://www.w3.org/2000/svg" viewBox="0 0 24.94434 39.14275"><defs><style>.cls-1{fill:#bf758a;}</style></defs><path class="cls-1" d="M12.47217,38.23357c-.55225,0-1-.44727-1-1V20.99724c0-.55273,.44775-1,1-1s1,.44727,1,1v16.23633c0,.55273-.44775,1-1,1Z"/><path class="cls-1" d="M12.47217,24.33513c-4.82764,0-8.75537-5.8374-8.75537-13.01221,0-1.18213,.21191-1.9707,.45703-2.88379,.35498-1.32129,.84082-3.13086,1.03662-7.48389C5.23438,.42107,5.6748,.00017,6.20947,.00017h0l12.52686,.00195c.54199,0,.98438,.43115,1,.97217,.13281,4.80029,.65039,6.47656,1.02832,7.7002,.24805,.8042,.46289,1.49805,.46289,2.64844,0,7.29639-3.8457,13.01221-8.75537,13.01221ZM7.15869,2.00017c-.23047,3.89404-.70215,5.6499-1.05322,6.95801-.23389,.87109-.38867,1.44678-.38867,2.36475,0,5.96924,3.09375,11.01221,6.75537,11.01221s6.75537-5.04297,6.75537-11.01221c0-.84863-.14844-1.32959-.37402-2.05811-.38379-1.24512-.90137-2.91992-1.08301-7.2627l-10.61182-.00195Z"/><path class="cls-1" d="M5.14273,10.68301s1.72439-2.54086,4.77936,.26966c1.75813,1.61745,4.04494,3.37079,5.7482,2.83322,2.52334-.7964,4.42502-.25841,4.42502-.25841,0,0-1.20501,9.8073-7.62305,9.8073S4.71684,14.59249,4.71684,11.32314l.4259-.64013Z"/><path class="cls-1" d="M20.95703,39.14275H3.8335c-.51709,0-.94922-.39453-.99609-.90918-.04688-.51562,.30664-.98145,.81543-1.07422l8.56201-1.57227c.11914-.02148,.24219-.02148,.36133,0l8.56152,1.57227c.50879,.09277,.8623,.55859,.81543,1.07422-.04688,.51465-.47852,.90918-.99609,.90918Z"/></svg>