<?xml version="1.0" encoding="UTF-8"?><svg id="Layer_5" xmlns="http://www.w3.org/2000/svg" viewBox="0 0 24.94434 41.76963"><defs><style>.cls-1{fill:#e5be7a;}</style></defs><path class="cls-1" d="M18.80267,39.79966l-5.33002-1.35999v-11.73999c1.59998-.20001,2.91998-.90002,3.92999-2.09003,2.92999-3.44,2.07001-9.90002,1.95001-10.73999-.03003-2.76001-1.09998-10.07001-1.14001-10.39001-.08002-.48999-.5-.84998-.98999-.84998H7.72266c-.48999,0-.90997,.35999-.98999,.84998-.04004,.32001-1.13,7.71002-1.14001,10.42999-.03998,.66003-.46002,7.66003,2.65002,11.03003,.88995,.95996,1.96997,1.54999,3.22998,1.73999v11.71997l-5.48999,1.40002c-.48999,.12-.81,.59003-.73999,1.09003,.06,.5,.47998,.87994,.98999,.87994h12.33002c.5,0,.92999-.37994,.98999-.87994s-.26001-.97003-.75-1.09003Zm-3.16003-15.96002c-.40997,0-.72998-.32996-.72998-.73999,0-.39996,.32001-.72998,.72998-.72998,.41003,0,.73999,.33002,.73999,.72998,0,.41003-.32996,.73999-.73999,.73999Zm0-3.92999c-.70996,0-1.28998-.58002-1.28998-1.28998,0-.71002,.58002-1.29004,1.28998-1.29004,.71002,0,1.29004,.58002,1.29004,1.29004,0,.70996-.58002,1.28998-1.29004,1.28998ZM8.59265,4.62968h7.76001c.28998,2.06,1,7.28998,1,9.32001,0,.04999,0,.10999,.01001,.15997,0,.01001,.03998,.28003,.08997,.72998-.59998,.01001-1.35999,.13-2.19995,.48004-1.40002,.58997-3.29004-1.33002-4.73004-3.10004-1.14001-1.39001-2.04999-1.57996-2.70996-1.37,.22998-2.25,.58997-4.89001,.77997-6.21997Zm-.94,11.40997c0-.71002,.58002-1.28998,1.28998-1.28998,.71002,0,1.29004,.57996,1.29004,1.28998,0,.72003-.58002,1.28998-1.29004,1.28998-.70996,0-1.28998-.56995-1.28998-1.28998Zm3.03998,8.12c-.71997,0-1.28998-.58002-1.28998-1.28998,0-.71002,.57001-1.29004,1.28998-1.29004,.71002,0,1.29004,.58002,1.29004,1.29004,0,.70996-.58002,1.28998-1.29004,1.28998Zm1.29004-3.90997c-.41003,0-.73999-.33002-.73999-.73999,0-.40002,.32996-.73004,.73999-.73004,.39996,0,.72998,.33002,.72998,.73004,0,.40997-.33002,.73999-.72998,.73999Z"/><circle class="cls-1" cx="14.57929" cy="10.90741" r="1.28933"/><circle class="cls-1" cx="10.91648" cy="7.05957" r=".91169"/><circle class="cls-1" cx="14.25356" cy=".96359" r=".96359"/></svg>