<?xml version="1.0" encoding="utf-8"?>
<!-- Generator: Adobe Illustrator 26.3.1, SVG Export Plug-In . SVG Version: 6.00 Build 0)  -->
<svg version="1.1" id="Layer_1" xmlns="http://www.w3.org/2000/svg" xmlns:xlink="http://www.w3.org/1999/xlink" x="0px" y="0px"
	 viewBox="0 0 43.5 34.2" style="enable-background:new 0 0 43.5 34.2;" xml:space="preserve">
<style type="text/css">
	.st0{fill:#CCC6B4;}
	.st1{fill:#E08D9F;}
	.st2{fill:#252428;}
</style>
<g id="Layer_1_00000166651306312027407350000012092270239889639083_">
</g>
<g id="Layer_2_00000028321506399767538880000015402342550181975712_">
	<g>
		<path class="st0" d="M42.3,13.6c-0.5,0.1-1.2,0-1.8-0.1c-0.4-0.1-0.7-0.2-1.2-0.4c-0.9-0.3-1.5-0.3-2,0.2
			c-0.2,0.2-0.3,0.3-0.5,0.6c-1.2,1.6-2.3,3.2-3.6,4.8c-0.3,0.4-0.7,0.9-1.2,1.2l0,0c-0.5,0.5-1.3,0.9-2.1,1c-0.3,3-1.1,6,0.4,8.9
			c-0.9,0.4-1.6,0.3-1.9-0.4c-0.6-1.6-1.5-3.2-1.7-5c-1,2.2-1.1,4.5,0.6,6.5c-1.2,0.6-2.6,0.2-3.2-1.1c-0.1-0.2-0.3-0.3-0.6-0.6
			c0.1-0.5,0.4-1.4,0.4-2.1c-0.1-2.3-0.2-4.7-0.3-7c0-0.1,0-0.2-0.1-0.3c-0.2-0.9-0.2-0.9-1.1-0.6c-1.6,0.3-3.1,0.5-4.7,0.3
			c-1.3-0.2-2.4-0.7-3.4-1.5c-0.2-0.2-0.4-0.4-0.7-0.5c-0.3-0.2-0.6-0.5-1-0.7c-1.4-0.9-2.8-0.7-3.8,0.5c-0.9,1.1-1.6,2.2-2.2,3.4
			c-1.1,2.1-1.6,4.4-1.7,6.8c-0.1,1.6,0.2,2.9,1.5,4c-0.5,0-1.2,0.1-1.7,0.1c-0.1,0-0.2,0-0.2-0.1c-0.4-0.7-1.1-1.5-1.1-2.1
			c0-2.3-0.1-4.7-0.5-7V22l0,0c-0.1-0.9,0-1.5,0.5-2.2c0.9-1.1,1.1-2.4,1.1-3.7c0-0.2,0-0.4,0-0.5c0-2-0.3-3.9-1-6
			c0,0.1,0,0.2-0.1,0.3c-0.4,0.7-0.9,1.8-1.1,2.8l0,0C2.1,13.2,2,13.8,2,14.3c0,0.6,0.1,1.2,0.2,1.8c0.2,0.6,0.2,1.2-0.3,1.6
			s-1.1,0.4-1.6,0c0,0-0.1,0-0.2,0v-2.2c0.1-0.2,0.2-0.5,0.3-0.9C0.7,13.8,1,12.9,1.3,12l0.1-0.2c0.3-1.2,0.7-2.4,1.3-3.6
			C3.1,7.1,3.7,6,4.9,5.5C6.1,4.9,7.3,3.9,8.8,4C9.9,4.1,11,4.3,12,4.4c2.3,0.3,4.7,0.5,7,0.5c1.8,0,3.6,0,5.4-0.1s3.7,0,5.5,0.2
			c0.9,0.1,1.6,0.1,2.4,0.1c0.4,0,1,0,1.4,0c0.2,0,0.4-0.2,0.5-0.4c0.3-0.9,0.9-1.5,1.7-2c0.2,0.7,0.4,1.4,0.6,2
			c0.5-0.2,1.1-0.3,1.6-0.5c0.7-0.3,1.5-0.3,2,0.4c0.9-0.5,1.9-0.7,3-0.4c0.2,1.1-0.5,1.6-1.2,2.1c-0.1,0-0.1,0.1-0.2,0.1
			c-0.2,0.2-0.3,0.5-0.3,0.9c0,0.5,0.1,1.2,0.2,1.7c0.2,0.9,0.5,1.6,1.3,2.2C43.9,12.1,43.4,13.4,42.3,13.6z"/>
		<path class="st1" d="M8.3,19.8c0.6-0.7,1.2-1.5,1.8-2.1c0.4-0.4,1-0.4,1.5-0.1c0.5,0.3,1.2,0.7,1.7,1.2c1.5,1.3,3.2,2,5.1,2.1
			c0.2,0,0.5,0.2,0.5,0.3c0.1,0.4,0.1,0.9,0,1.2c-0.2,0.4-1,0.2-1.1-0.2c-0.1-0.2-0.1-0.4-0.2-0.6c-0.5,0.1-0.9,0.3-0.6,1
			c0.2,0.4,0.1,0.9-0.4,1c-0.5,0.1-0.7-0.2-0.9-0.7c0-0.1-0.1-0.3-0.1-0.4c-0.3,0-0.5,0.1-0.9,0.1c0,0.3,0,0.6,0,1
			c0,0.4-0.2,0.7-0.6,0.7c-0.4,0-0.6-0.3-0.6-0.7c0-0.3,0-0.6,0-1.1c-0.3-0.1-0.5-0.1-1-0.2c0,0.3,0,0.6,0,1c0,0.4-0.2,0.6-0.6,0.7
			c-0.4,0-0.7-0.3-0.6-0.6c0.2-1.3-0.4-1.8-1.4-2.2C9.2,20.6,8.8,20.2,8.3,19.8z"/>
		<path class="st0" d="M11.7,31.2c-0.1,0-0.1,0.1-0.1,0.1c-2.2,0.4-2.6,0.2-3.2-2.2c-0.1-0.6,0-1.4,0-2c-0.1-1.7-0.1-3.4-0.2-5.1
			c0-0.1,0-0.3,0-0.4c0.4,0.3,1,0.5,1.3,0.7c0.1,0.1,0.1,0.3,0.2,0.5c0.2,0.5,0.4,1.1,0.5,1.6c0.1,0.3,0.1,0.5,0.1,0.9
			c0,0.9-0.2,1.6-0.2,2.4C10.1,29,10.6,30.2,11.7,31.2z"/>
		<path class="st2" d="M19.7,7c0,0.4-1.6,2.6-3.3,1.1c-1.7-1.5-3.5-0.3-3.9,0.2c-0.3,0.5,0.4,3.3-3.6,3.5c-4,0.2-4-6.2-4-6.2
			c1.3-0.7,2.6-1.7,4-1.6C9.9,4.1,11,4.3,12,4.4c2.3,0.3,4.7,0.5,7,0.5C19,5,19.7,6.5,19.7,7z"/>
		<path class="st2" d="M23.5,19.7c-0.2-0.9-0.2-0.9-1.1-0.6c-1.6,0.3-3.1,0.5-4.7,0.3c-1.3-0.2-2.4-0.7-3.4-1.5
			c-0.2-0.2-0.4-0.4-0.7-0.5v-0.2c-0.7-1.8-1.1-4.7,0.7-4.9c1.8-0.2,4.4,0.3,5,1.8c0.6,1.6,3.7,2.2,4.4,1.2c0.6-1.1,3.7,2.3,3.7,2.6
			S29,21.7,23.5,19.7z"/>
		<path class="st2" d="M26.6,24.3c0,0,0.4-3,3.2-3.5L29.4,24C29.4,24,27.8,27,26.6,24.3z"/>
		<path class="st2" d="M41.6,7.3c0,0.5,0.1,1.2,0.2,1.7c-0.5,0.6-2.1,0.5-3.3,0c-1.4-0.7-0.5-1.4,1.3-2.7c0,0,0.6-0.1,1.8,0
			c0.1,0,0.3,0.1,0.4,0.1C41.7,6.7,41.6,6.9,41.6,7.3z"/>
		<path class="st2" d="M31,9.6c-4.9-0.3-6.6-2.9-6.6-3.6s0.1-1.2,0.1-1.2c1.8-0.1,3.7,0,5.5,0.2c0.9,0.1,1.6,0.1,2.4,0.1
			C32.4,5.2,35.9,9.9,31,9.6z"/>
		<path class="st2" d="M37.3,13.3c-0.2,0.2-0.3,0.3-0.5,0.6c-1.2,1.6-2.3,3.2-3.6,4.8c-0.3,0.4-0.7,0.9-1.2,1.2
			c0-1.6,0.1-4.6-1.8-5.1c-1.9-0.5-1.9-1.8-1.2-2.3s2.9-2,4.5-0.7c1.6,1.3,2.9,1.8,3.5,1.6C37.1,13.3,37.2,13.3,37.3,13.3z"/>
		<path class="st2" d="M1.8,17.7c-0.5,0.4-1.1,0.4-1.6,0c0,0-0.1,0-0.2,0v-2.2c0.1-0.2,0.2-0.5,0.3-0.9c0.3-0.9,0.5-1.7,0.9-2.7
			l0.1-0.2c0,0,1.1-0.3,0.9,0.9l0,0c-0.1,0.5-0.2,1.2-0.2,1.7c0,0.6,0.1,1.2,0.2,1.8C2.3,16.8,2.3,17.3,1.8,17.7z"/>
		<path class="st2" d="M7.1,16.9c0,1.1-0.1,0.9-1.1,1.9c-1,1.1-1.2,1.6-1.2,2.2c0,0.6-1.8,1.6-2.1,0.7l0,0c-0.1-0.9,0-1.5,0.5-2.2
			c0.9-1.1,1.1-2.4,1.1-3.7c0-0.2,0-0.4,0-0.5C5.1,15.9,7.1,15.8,7.1,16.9z"/>
	</g>
</g>
</svg>
