<?xml version="1.0" encoding="utf-8"?>
<!-- Generator: Adobe Illustrator 26.3.1, SVG Export Plug-In . SVG Version: 6.00 Build 0)  -->
<svg version="1.1" id="Layer_3" xmlns="http://www.w3.org/2000/svg" xmlns:xlink="http://www.w3.org/1999/xlink" x="0px" y="0px"
	 viewBox="0 0 24.9 39.1" style="enable-background:new 0 0 24.9 39.1;" xml:space="preserve">
<style type="text/css">
	.st0{fill:#E5DCB1;}
</style>
<path class="st0" d="M12.5,38.2c-0.6,0-1-0.4-1-1V21c0-0.6,0.4-1,1-1s1,0.4,1,1v16.2C13.5,37.8,13,38.2,12.5,38.2z"/>
<path class="st0" d="M12.5,24.3c-4.8,0-8.8-5.8-8.8-13c0-2.7,0.5-8.5,1.6-10.8C5.5,0.2,5.8,0,6.2,0l0,0l12.5,0
	c0.4,0,0.7,0.2,0.9,0.6c1.1,2.2,1.6,8.1,1.6,10.7C21.2,18.6,17.4,24.3,12.5,24.3L12.5,24.3z M6.9,2c-0.7,2.1-1.2,6.8-1.2,9.3
	c0,6,3.1,11,6.8,11s6.8-5,6.8-11c0-2.5-0.5-7.2-1.2-9.3C18.1,2,6.9,2,6.9,2z"/>
<path class="st0" d="M5.1,10.7c0,0,1.7-2.5,4.8,0.3c1.8,1.6,4,3.4,5.7,2.8c2.5-0.8,4.4-0.3,4.4-0.3s-1.2,9.8-7.6,9.8
	s-7.8-8.7-7.8-12C4.7,11.3,5.1,10.7,5.1,10.7z"/>
<path class="st0" d="M21,39.1H3.8c-0.5,0-0.9-0.4-1-0.9c0-0.5,0.3-1,0.8-1.1l8.6-1.6c0.1,0,0.2,0,0.4,0l8.6,1.6
	c0.5,0.1,0.9,0.6,0.8,1.1C21.9,38.7,21.5,39.1,21,39.1z"/>
</svg>
