<?xml version="1.0" encoding="utf-8"?>
<!-- Generator: Adobe Illustrator 26.3.1, SVG Export Plug-In . SVG Version: 6.00 Build 0)  -->
<svg version="1.1" id="Layer_1" xmlns="http://www.w3.org/2000/svg" xmlns:xlink="http://www.w3.org/1999/xlink" x="0px" y="0px"
	 viewBox="0 0 48 48" style="enable-background:new 0 0 48 48;" xml:space="preserve">
<path d="M29.3,42.7L11.8,25.2c-0.2-0.2-0.3-0.3-0.4-0.5c-0.1-0.2-0.1-0.4-0.1-0.5s0-0.4,0.1-0.5c0.1-0.2,0.2-0.3,0.4-0.5L29.3,5.5
	C29.7,5.2,30.1,5,30.7,5s1,0.2,1.4,0.6c0.4,0.4,0.6,0.9,0.6,1.4s-0.2,1-0.6,1.4L16.4,24.1l15.7,15.7c0.4,0.4,0.6,0.9,0.6,1.4
	c0,0.6-0.2,1-0.6,1.4c-0.4,0.4-0.9,0.6-1.4,0.6C30.1,43.3,29.7,43.1,29.3,42.7z"/>
</svg>
