<?xml version="1.0" encoding="UTF-8"?><svg id="Layer_2" xmlns="http://www.w3.org/2000/svg" viewBox="0 0 1080 1080"><defs><style>.cls-1{fill:#fff;}.cls-2{fill:#4c0f19;}</style></defs><g id="Layer_1-2"><rect class="cls-2" width="1080" height="1080"/><g id="LOGO_FINAL"><g><g><path class="cls-1" d="M783.54643,905.23935v2.70942s.27874,7.08195-9.78994,7.53308c-10.06867,.45113-6.29989,.20777-8.23531,.34596-1.93508,.16587-5.80525,.22122-11.63886,.22122-13.18719,.60813-21.31496,.91237-24.41129,.91237-33.3409,0-50.01151-4.50631-50.01151-13.54661,0-7.21556,5.83293-10.80968,17.44445-10.80968h6.99452c1.52033,.30423,3.26238,.44243,5.22513,.44243h.35907c-.11035-.85702-.13803-1.76938-.08268-2.70925,5.9993-95.21282-4.25759-190.03872-11.50083-284.89213-.02767-.27639-.02767-.55278-.02767-.82935-1.65869,.16587-3.31738,.24889-5.03142,.24889-8.92994,0-13.38057-3.62162-13.38057-10.83735,0-3.59395,2.81995-6.77313,8.43183-9.48256,5.61222-2.68158,12.88313-4.64451,21.81273-5.86094,16.28353-2.10112,30.02351-3.15152,41.27528-3.15152,4.64468,0,8.62587,1.21626,11.91559,3.62162,3.28971,2.40519,4.94874,5.25264,4.94874,8.57019,0,3.28988-1.27161,6.165-3.78783,8.57019-2.51554,2.40519-5.72224,3.59411-9.59308,3.59411-2.32217,0-4.25725-.13836-5.80525-.44243h-4.64501c-3.89784,0-6.69012,.66348-8.43183,2.0181-1.74171,1.3548-2.62657,3.84283-2.62657,7.43678,0,31.87592,2.51622,75.77777,7.57531,131.70557,4.64468,58.63722,6.96651,102.67727,6.96651,132.14783v17.14055c2.70959-.30407,6.5801-.44226,11.61152-.44226,16.28353,0,24.43897,5.25264,24.43897,15.78576Z"/><path class="cls-1" d="M1009.66122,599.99041c-1.88008,60.8487-4.1173,120.15913-7.43469,180.92498-.6358,45.80944-1.76972,91.5912-3.5111,137.34529-.69115,17.74868-21.85932,12.22822-29.073-.30986h0c-8.87459-12.82778-20.27537-42.90085-37.27739-86.69201-27.12088-72.46022-50.56464-139.0595-70.33159-199.79767v147.93375c0,12.63424,1.548,34.14274,4.64468,64.49799,2.70925,33.06467,4.06388,54.43497,4.06388,64.0559,0,2.68158-2.1288,5.03159-6.38639,6.96668-.99488,.44243-2.0181,.85702-3.06833,1.21643-3.53877,3.56644-21.34297,5.41868-25.54487,4.22992-6.60777-1.85223-5.8336-4.09155-8.34914-10.14603l.38675-15.31599c.58046-21.3703-2.2945-43.68064-3.12367-64.8299-1.02323-25.93196-2.07345-51.86375-2.65425-77.82338-.77383-34.91691-2.36455-65.66797-.4568-100.50186,.37989-2.37631-.179-8.75517,.04204-11.87919,1.29928-16.75347,1.63136-33.50693,1.02323-50.31575-.27673-7.40911,4.37201-13.67665,9.92888-14.89308,2.70178-1.09925,2.17974-.61628,3.72808-1.4733,1.57567-.99522,3.28971-1.54817,5.14211-1.63102,1.82473-.41476,3.6768-.33191,5.50153,.24872,1.07823,.33174,2.1288,.71882,3.20703,1.05056,4.97641,.24889,11.27945,6.85615,18.88209,19.82213,12.80011,21.64686,29.08364,60.43428,48.8506,116.36207,11.2241,32.48405,24.41129,74.25711,39.53391,125.37453,.27605,1.05056,3.37273,11.41781,9.28868,31.12942l.58046,2.26699c0-29.16649,.38742-55.31967,1.16159-78.48702l1.16092-78.48702v-133.50246c1.54834-7.49213,7.76869-11.25194,18.63337-11.25194,6.02664,0,8.97713,.52884,14.6671,3.8551,5.06676,3.34921,6.14977,6.40058,6.01141,12.53807-.05535,2.32217,.57061,4.34858,.51526,6.69842,.85419,4.20661,.36799,7.80704,.25763,10.82053Z"/></g><path class="cls-1" d="M626.57238,576.88797l-8.73589,60.87637c-1.93508,18.66105-6.77313,52.47222-14.54182,101.48851l-5.22513,29.77479c-4.25725,26.45724-8.51485,51.42149-12.77244,74.86524-5.83326,33.97704-11.25211,57.58666-16.28353,70.80153-2.34984,6.9115-4.6855,10.61392-6.99404,10.36722-2.35425-.2516-3.18959-.21187-6.4986-.31574-2.09768-.09408-2.0444-.23719-3.03961-.12666-3.17936,.38708-8.87577,.48088-8.87577,.48088,0,0-3.56493,.29329-5.47268,.9291-6.96685,2.40519-15.28832-2.70925-17.02969-9.64843-27.09321-108.42769-48.60188-218.15465-64.38763-328.79382-1.60368-11.22427,8.90193-18.32931,17.2234-17.22357,.71882-.33174,1.43765-.6358,2.21181-.85702,.69115-.08285,1.3823-.19337,2.07345-.27639,.93987-.19354,1.90741-.33174,2.81995-.33174,3.81482,0,6.96685,1.63102,9.75912,4.06388,1.7137,1.46532,3.17902,3.40057,4.28493,5.36333,.85685,1.46532,1.52033,3.12401,2.07345,4.72753,.19337,.55295,.33174,1.13341,.41476,1.71404,.11069,.35941,.19371,.7465,.24872,1.10591,4.3126,9.56541,9.04029,24.63251,14.21008,45.14579,10.06318,38.78741,19.96033,82.68927,29.63643,131.6779l15.70307,79.84165c6.19268-36.07799,11.0584-63.14336,14.54148-81.19628,7.35427-41.46899,12.77277-75.83295,16.28387-103.03668,3.48342-27.20357,5.2248-52.99733,5.2248-77.35344,5.80593-6.02681,12.80045-9.01262,20.92821-9.01262l12.21931,4.94874Z"/></g><path class="cls-1" d="M465.79785,906.22125c-14.96768-53.48876-24.64872-108.28961-33.6549-163.19232-3.05742-18.66187-6.07627-37.33641-9.20988-55.99827-3.65609-37.85865-6.53499-67.94687-12.41999-105.41071-2.17823-13.92312-31.96089-10.76393-31.96089-10.76393-12.8784,0-29.26019,6.49658-48.26587,28.27931-17.84659,20.44528-30.827,34.99257-49.71823,56.02378-21.82113,24.29224-59.79423,38.82678-86.88895,41.06876-21.47717,1.78334-61.80701,3.89796-86.16308,2.6878-.11445-1.65598-1.45205-7.80868-4.33095-9.31181,0,0-21.91008-9.1207-41.27247-2.95533-3.01916,1.05731-3.52858,1.56681-5.14639,2.52219-1.85976,1.56688-4.70073,4.78967-5.5541,8.56028-6.39473,28.55959-6.03801,46.77557-1.2866,69.70479,1.1594,5.57945,.95538,5.4521,5.32459,9.13353,4.0383,3.37564,10.43303,5.5667,14.63647,6.31822,4.77692,1.56688,10.44578,1.60506,15.92307,1.15924,.68793,.05093,1.3121-.01275,1.87283-.16561,3.88498-.38214,7.65551-.57325,10.77668-1.26109,8.81491-1.93627,8.36894-10.87869,8.36894-10.87869,86.9527-2.54769,131.21883-1.36302,172.04564,42.18975,22.19029,23.66807,65.59029,101.06693,126.74762,110.25139,9.22263,1.38845,50.73736-.57325,50.73736-.57325,6.62393-1.96177,11.96127-8.38192,9.43908-17.38802Zm-264.88335-188.89851c-36.90327,4.15275-81.85732,4.72592-89.25844,4.58581-.58592-.01275-1.04433-.49682-1.04433-1.08274v-8.45835c0-.61142,.49666-1.10824,1.10808-1.06999,25.15845,1.08274,47.15778,1.17192,68.95342-.586,27.88434-2.24198,49.13199-4.22918,86.92689-24.83999-13.74453,11.9741-27.83334,27.09472-66.68562,31.45125Zm197.87926-120.25104c-25.84637-3.00626-45.23426,8.36917-78.90222,46.45718,27.85915-56.94091,47.54-57.93454,77.1314-55.45053,.64967,.051,1.21009,.50957,1.37585,1.14649,.64967,2.40759,1.99971,8.08889,.39497,7.84685Z"/><path class="cls-1" d="M549.98192,486.73983l.04343-1.68815c0-16.53225-1.74171-41.05424-5.22513-73.51078-3.87051-30.99105-5.80559-55.48537-5.80559-73.53828h6.38639c8.12776-.58063,13.96103-1.05056,17.44445-1.35463,4.64468-.27656,8.43183-.96771,11.33479-2.0181,2.90296-1.05056,4.75503-1.71421,5.5292-2.01827,5.03176-1.82456,7.5473-4.81038,7.5473-9.04013,0-3.59411-1.548-6.82865-4.64434-9.70377-3.09634-2.84762-6.77313-4.28526-11.0584-4.28526-3.87051,0-9.59308,.69115-17.14038,2.04595-7.5473,1.35463-12.68976,2.32217-15.39901,2.93047-.80184-18.93761-2.32251-38.92561-4.64434-59.99185-2.73693-25.24081-4.09155-45.69891-4.09155-61.3188,0-3.31755,5.41851-4.97625,16.2832-4.97625h8.15543l5.80593,.44226c4.64434,0,8.51485-.80167,11.63886-2.46053,3.09634-1.65869,4.64434-4.1469,4.64434-7.43678,0-5.72274-1.96276-9.70377-5.83293-11.9706-3.87084-2.23932-10.25689-3.3729-19.1865-3.3729-7.35393,0-12.19198,.1382-14.51415,.44243-4.67235,0-9.81413,.52511-15.42634,1.57567-5.61222,1.05056-7.01137,1.01108-11.06907,2.2681-3.34921,1.19155-1.57799,.32204-8.40523,2.38309-9.11372,2.25428-16.21678,4.96973-15.74667,15.50285,4.56132,103.45127,9.15065,206.93022,13.71231,310.38149,.60813,13.79549,12.17861,12.99791,24.54493,12.03179,2.57632-.38645,3.53004-.8373,5.60349-.8373,5.83293,0,10.27001-2.09885,13.75343-4.36584,3.48342-2.26699,5.22513-5.33566,5.22513-9.23384l.53703-6.88204Z"/><path class="cls-1" d="M1002.749,430.47851c0,19.82213-6.19268,38.48318-18.60604,55.9278-6.57942,9.01262-15.09461,16.14534-25.57255,21.42565-10.4776,5.25281-22.08912,7.87921-34.8889,7.87921-13.96136,0-25.95963-1.96293-36.05049-5.86111-6.19268-2.70925-9.28901-5.86094-9.28901-9.48256,0-3.59395,1.16125-6.52441,3.48342-8.79141,2.32217-2.23932,5.61188-3.37273,9.86947-3.37273,3.87051,0,9.51006,1.18876,16.86433,3.59395,8.15543,2.43286,13.18719,3.62162,15.12228,3.62162,7.35359,0,14.04404-2.48821,20.07102-7.43678,5.99897-4.97625,10.754-11.50066,14.23742-19.62859,6.96685-15.03943,10.47794-28.55836,10.47794-40.58447,0-12.93831-2.62623-26.54009-7.85137-40.83302-3.45575-9.37203-7.71334-18.60587-12.74476-27.67367-.80184-.82935-1.57601-1.76938-2.23949-2.9028-14.92857-24.82622-38.06859-43.90186-52.7211-68.92145-5.41851-9.26151-10.67098-20.78984-13.54627-32.73293-3.56644-10.03551-5.50153-20.67915-5.25281-31.26762,.77417-33.6728,24.79872-63.3369,59.65994-64.05573,1.60368-.02767,3.069,.16587,4.36828,.55295,3.87017-.63597,7.96206-.96771,12.27466-.96771,6.99452,0,13.76765,1.57584,20.37542,4.72753,6.57942,3.15168,11.2241,7.13271,13.93335,11.94309l-9.86947,9.48256c-10.09086,0-17.6385-1.49299-22.66992-4.50631-2.95797,.24872-5.77792,.88469-8.40415,1.87991,0,0,0,.02767-.02767,.02767-2.81995,.99522-5.44618,2.46053-7.90705,4.31277-.66348,.52528-1.32695,1.07823-1.99043,1.65869-5.2248,4.67218-9.206,10.00784-11.91559,16.00714-2.32183,5.72274-3.48309,11.44531-3.48309,17.14038,0,11.44548,2.0181,23.08451,6.10966,34.97225,4.06422,11.86007,9.37203,23.05684,15.97947,33.58995l40.69483,63.14336c6.57976,10.83718,11.83257,23.00149,15.70307,36.52042,3.87017,13.54644,5.80559,27.06537,5.80559,40.61198Z"/><path class="cls-1" d="M826.29018,442.20038c0,15.03943-1.93508,28.25413-5.80559,39.67194-2.32217,6.93917-5.5292,12.49604-9.59342,16.69829-4.09155,4.20208-9.59308,7.8237-16.5876,10.83718-6.57942,2.98581-15.09461,4.50631-25.57255,4.50631-6.05431,0-11.77722-.52528-17.16806-1.54817-2.26682,.46993-4.94874,.24872-8.01707-.82935-59.07982-20.98339-76.57961-77.7682-84.43098-133.5303-9.59308-68.17495-12.38535-136.95821-8.15543-205.68611,1.02255-16.67062,38.53836-11.61135,41.96643,3.89801,2.84762,5.25281,4.28526,12.74493,4.28526,22.42103,0,13.8505,.96754,40.00368,2.90263,78.48686,1.93542,38.48335,2.90296,64.63635,2.90296,78.48702,.57803,7.2703-.13315,16.67423,1.60856,28.3961,1.74171,11.72204,3.69139,16.59932,5.02382,24.34619,1.12,6.51182,2.87802,14.38227,5.58728,24.14122,2.70925,9.78662,6.57942,19.62876,11.63886,29.55358,5.03142,10.50544,11.61118,19.15866,19.76662,25.93196,1.90775,1.57584,3.84317,2.98581,5.77826,4.17457,.24872,.1382,.49744,.27639,.71882,.44226,6.13733,3.67696,12.49604,5.5292,19.07547,5.5292,5.41884,0,9.9805-1.35463,13.6573-4.06388,3.6768-2.70942,6.10999-6.60743,7.27091-11.72188,2.32251-8.43216,3.48342-16.69829,3.48342-24.82622v-87.94191c0-11.11358-1.35463-25.24081-4.06388-42.38119-2.32251-18.93761-3.48342-33.23054-3.48342-42.85129v-3.15168c0-4.81038-.19371-9.17849-.58046-13.07667l-.5808-13.0765c0-8.432-.58046-21.20443-1.74171-38.34498-1.54834-15.34349-2.32217-28.25413-2.32217-38.78725,0-3.31755,2.21148-6.16517,6.69045-8.57036,4.45063-2.40519,9.3717-3.62162,14.81788-3.62162l14.54182,10.39492v7.658c0,3.59395-.8015,7.96206-2.3495,13.0765-1.54834,8.432-2.32251,13.24237-2.32251,14.43113,0,27.3696,1.93508,65.10646,5.83326,113.21039,3.48342,50.50929,5.22513,89.73897,5.22513,117.7167Z"/><path class="cls-1" d="M416.74479,442.20038c0,15.03943-1.93542,28.25413-5.80559,39.67194-2.32251,6.93917-5.5292,12.49604-9.59308,16.69829-4.06388,4.20208-9.59308,7.8237-16.55992,10.83718-6.60777,2.98581-15.12262,4.50631-25.60022,4.50631-11.83257,0-22.39353-1.9906-31.7929-5.88861-.02767-.02767-.05535-.02767-.08302-.02767-1.8524-.46993-3.76015-1.21643-5.75058-2.21165-72.70877-37.10088-86.50443-207.87026-83.4631-320.72123,.35941-13.823,24.24559-22.7526,34.64051-17.66583h.02767c9.95249,2.81995,14.9009,13.24254,14.9009,31.24011,0,13.8505,.96788,40.00368,2.93064,78.48686,1.93508,38.48335,2.90296,64.63635,2.90296,78.48702,.4614,6.62623,.65159,13.58265,2.39364,25.30452,1.76905,11.72204,3.85915,19.68269,4.895,27.18014,.90429,6.54526,2.19375,14.6399,4.903,24.39885,2.70925,9.78662,6.60743,19.62876,11.63886,29.55358,5.03176,10.50544,11.63919,19.15866,19.76729,25.93196,8.12776,6.74563,16.67028,10.14603,25.57255,10.14603,5.44618,0,9.97983-1.35463,13.68463-4.06388,3.6768-2.70942,6.08198-6.60743,7.24324-11.72188,2.34984-8.43216,3.51076-16.69829,3.51076-24.82622v-87.94191c0-11.11358-1.3823-25.24081-4.09155-42.38119-2.32183-18.93761-3.48342-33.23054-3.48342-42.85129v-3.15168c0-4.81038-.19337-9.17849-.58046-13.07667l-.58046-13.0765c0-8.432-.58046-21.20443-1.74171-38.34498-1.548-15.34349-2.32217-28.25413-2.32217-38.78725,0-3.31755,2.21181-6.16517,6.69012-8.57036,4.4513-2.40519,9.39971-3.62162,14.81853-3.62162,7.52116-1.03259,11.72629,2.63694,13.94899,10.51653l.59285,7.53639c0,3.59395-.77417,7.96206-2.32251,13.0765-1.54834,8.432-2.32217,13.24237-2.32217,14.43113,0,27.3696,1.93542,65.10646,5.80559,113.21039,3.48342,50.50929,5.22513,89.73897,5.22513,117.7167Z"/><path class="cls-1" d="M187.76601,449.41595c-10.09086-23.13969-17.0577-39.69961-20.92787-49.6246-5.44652-14.12706-10.36725-29.44289-14.81855-46.00281-4.47864-16.53242-6.88383-30.21705-7.27057-41.02673l5.80525-11.72188,6.96685-12.63424c.77417-1.79706,2.54355-5.72274,5.25281-11.72188,2.70959-6.02681,4.45096-10.53312,5.22513-13.54661,.38708-1.49282,1.05056-4.94857,2.04578-10.36725,.94021-5.41851,1.43765-10.36725,1.43765-14.87356,0-7.8237-.77417-14.73519-2.32251-20.762-3.48342-14.73536-11.25177-27.34193-23.25004-37.87505-5.80593-5.11461-12.80011-9.09564-20.92821-11.94309-7.79602-2.73693-16.25552-4.1469-25.46185-4.25759-9.6761-3.28971-23.58212,.44243-24.52199,11.61135-9.17832,108.51054-11.19643,210.91142-6.02698,319.67067,.52545,10.83718,9.60948,14.0402,19.07745,14.29783,4.50855-.19322,4.7814-.14309,7.84973-.14309,6.19268,0,10.36725-1.13341,12.49604-3.37273,2.1288-2.26699,3.20703-5.80576,3.20703-10.61614v-177.68071c5.80559,16.53225,12.99382,35.16563,21.50867,55.90012,11.25177,27.67367,19.76696,51.28329,25.57255,70.82903,5.83326,19.54574,7.70583,30.47487,8.86678,46.42667,.59276,3.57713,1.81778,6.55967,3.69278,8.93126,6.96696,8.10024,12.07311,11.37955,19.42671,11.37955,6.99452,0,11.0584-2.40519,12.21965-7.21556,1.16125-3.59411,1.74171-7.96206,1.74171-13.07667v-.9122l-16.86399-39.67211Zm-48.8506-209.28023l-8.70822,38.78741c-7.76869,7.51963-14.34845,13.38057-19.76729,17.58281-.38675-3.28988-.58046-10.20138-.58046-20.7345,0-11.11374,.58046-26.7613,1.74171-46.91518l1.16125-45.09061c3.87017,.30407,7.658,2.32217,11.33479,6.08198,3.6768,3.75998,6.69045,8.34914,9.01262,13.76782,4.25725,11.41781,6.38605,21.48082,6.38605,30.21705,0,2.70925-.19337,4.81038-.58046,6.3032Z"/></g></g></svg>