<?xml version="1.0" encoding="UTF-8"?><svg id="Layer_2" xmlns="http://www.w3.org/2000/svg" viewBox="0 0 756.63463 605.18967"><defs><style>.cls-1{stroke:#000;stroke-miterlimit:10;stroke-width:.5px;}</style></defs><g id="Layer_1-2"><g id="LOGO_FINAL"><g><g><path class="cls-1" d="M578.69239,585.84206v2.12696s.21882,5.5595-7.68534,5.91365-4.94557,.1631-6.46492,.27159c-1.51909,.13021-4.55727,.17366-9.13679,.17366-10.35227,.4774-16.73276,.71623-19.16347,.71623-26.17342,0-39.26027-3.53756-39.26027-10.63442,0-5.6644,4.57899-8.48586,13.69432-8.48586h5.49087c1.19349,.23883,2.56105,.34732,4.10186,.34732h.28188c-.08663-.67278-.10835-1.38901-.06491-2.12683,4.7096-74.7444-3.34231-149.18507-9.02843-223.64733-.02172-.21697-.02172-.43395-.02172-.65106-1.30211,.13021-2.60423,.19538-3.94979,.19538-7.01022,0-10.50407-2.84306-10.50407-8.50759,0-2.82134,2.21373-5.31708,6.61919-7.44404,4.40573-2.10511,10.11357-3.64605,17.12353-4.60098,12.78297-1.64943,23.5692-2.47402,32.40211-2.47402,3.64618,0,6.77152,.9548,9.35403,2.84306,2.5825,1.88813,3.88488,4.12345,3.88488,6.72781,0,2.58264-.99824,4.83968-2.97354,6.72781-1.97476,1.88813-4.4921,2.82147-7.5308,2.82147-1.82296,0-3.34205-.10862-4.55727-.34732h-3.64645c-3.0599,0-5.2519,.52085-6.61919,1.58426-1.36729,1.06355-2.06192,3.01672-2.06192,5.83806,0,25.02338,1.97529,59.48741,5.94681,103.39211,3.64618,46.03166,5.46888,80.60418,5.46888,103.7393v13.45575c2.1271-.2387,5.16554-.34719,9.11533-.34719,12.78297,0,19.18519,4.12345,19.18519,12.39221Z"/><path class="cls-1" d="M756.19806,346.21413c-1.47591,47.76772-3.23218,94.32787-5.83641,142.03056-.49912,35.96153-1.38928,71.90134-2.7563,107.81943-.54257,13.93315-17.1601,9.59945-22.82302-.24324h0c-6.96677-10.07013-15.91667-33.67822-29.26367-68.05536-21.29056-56.88305-39.69448-109.16513-55.21203-156.84609v116.13164c0,9.91819,1.21522,26.80289,3.64618,50.63251,2.12683,25.95658,3.19025,42.73279,3.19025,50.28545,0,2.10511-1.67116,3.94992-5.01347,5.46901-.781,.34732-1.58426,.67278-2.40871,.95493-2.77802,2.79974-16.75475,4.25379-20.05335,3.32059-5.18726-1.45405-4.57952-3.21197-6.55428-7.96489l.30361-12.02343c.45567-16.77621-1.80124-34.29038-2.45216-50.89306-.80326-20.35722-1.62771-40.71432-2.08365-61.09327-.60748-27.41063-1.85623-51.55097-.3586-78.89643,.29823-1.86546-.14052-6.87303,.033-9.32545,1.01997-13.15188,1.28066-26.30377,.80326-39.4991-.21724-5.81633,3.43213-10.73651,7.79441-11.69143,2.12096-.86294,1.71115-.4838,2.92664-1.15658,1.23694-.78127,2.5825-1.21535,4.03669-1.28039,1.43246-.32559,2.88638-.26056,4.31883,.19525,.84644,.26042,1.67116,.56429,2.5176,.82472,3.90661,.19538,8.85464,5.38225,14.82291,15.56086,10.0484,16.99332,22.83137,47.44239,38.34892,91.34709,8.81119,25.50077,19.16347,58.29365,31.03509,98.42209,.21671,.82472,2.64768,8.96326,7.29184,24.43736l.45567,1.77964c0-22.89641,.30414-43.4273,.91188-61.61424l.91135-61.61424v-104.80271c1.21548-5.8815,6.09861-8.83305,14.62766-8.83305,4.73106,0,7.04727,.41515,11.51403,3.02635,3.97753,2.62921,4.82772,5.02461,4.7191,9.8427-.04345,1.82296,.44794,3.41374,.40449,5.25843,.67056,3.3023,.28888,6.12872,.20225,8.49438Z"/></g><path d="M455.4639,328.07815l-6.85789,47.78945c-1.51909,14.64938-5.31708,41.19198-11.41569,79.67098l-4.10186,23.37394c-3.34205,20.76958-6.68436,40.36713-10.02668,58.77105-4.57926,26.67281-8.83318,45.20694-12.78297,55.58094-1.84468,5.4257-3.67824,8.33219-5.49049,8.13852-1.84814-.19751-2.50391-.16632-5.10156-.24786-1.64673-.07385-1.6049-.1862-2.38617-.09943-2.49587,.30387-6.9677,.3775-6.9677,.3775,0,0-2.79856,.23024-4.29619,.72936-5.46914,1.88813-12.0017-2.12683-13.36873-7.57425-21.26884-85.1184-38.15367-171.25677-50.54588-258.11123-1.25893-8.81133,6.98823-14.38896,13.52079-13.52093,.56429-.26042,1.12859-.49912,1.73633-.67278,.54257-.06504,1.08514-.1518,1.62771-.21697,.73782-.15194,1.49737-.26042,2.21373-.26042,2.99473,0,5.46914,1.28039,7.66115,3.19025,1.3453,1.15031,2.49561,2.66953,3.36377,4.21035,.67265,1.15031,1.19349,2.45243,1.62771,3.71122,.1518,.43408,.26042,.88976,.32559,1.34556,.0869,.28215,.15207,.58602,.19525,.86816,3.3855,7.50908,7.09685,19.33713,11.15526,35.44056,7.89985,30.44907,15.66935,64.91311,23.26532,103.37039l12.3273,62.67766c4.8614-28.32211,8.68111-49.56909,11.41542-63.74108,5.77328-32.55418,10.02694-59.53073,12.78324-80.88633,2.73457-21.35547,4.10159-41.60421,4.10159-60.72436,4.5578-4.73119,10.04867-7.07513,16.42916-7.07513l9.59246,3.88488Z"/></g><path d="M329.25194,586.61287c-11.75-41.98999-19.34985-85.01001-26.41992-128.10999-2.40015-14.65002-4.77002-29.31-7.22998-43.96002-2.87012-29.71997-5.13013-53.33997-9.75-82.75-1.70996-10.92999-25.09009-8.44995-25.09009-8.44995-10.10986,0-22.96997,5.09998-37.88989,22.19995-14.01001,16.05005-24.19995,27.47003-39.03003,43.98004-17.13013,19.07001-46.93994,30.47998-68.20996,32.23999-16.86011,1.39996-48.52002,3.06-67.64014,2.10999-.08984-1.29999-1.13989-6.13-3.3999-7.31,0,0-17.19995-7.15997-32.3999-2.32001-2.37012,.83002-2.77002,1.22998-4.04004,1.97998-1.45996,1.23004-3.69019,3.76001-4.36011,6.72003-5.02002,22.41998-4.73999,36.71997-1.01001,54.71997,.91016,4.38,.75,4.28003,4.17993,7.17004,3.17017,2.64996,8.19019,4.37,11.48999,4.95996,3.75,1.23004,8.2002,1.26001,12.5,.91003,.54004,.03998,1.03003-.01001,1.47021-.13,3.0498-.29999,6.00977-.45001,8.45996-.98999,6.91992-1.52002,6.56982-8.54004,6.56982-8.54004,68.26001-2,103.01001-1.07001,135.06006,33.12,17.41992,18.58002,51.48999,79.34003,99.5,86.55005,7.23999,1.08997,39.83008-.45001,39.83008-.45001,5.19995-1.54004,9.38989-6.58002,7.40991-13.65002ZM121.312,438.32289c-28.96997,3.26001-64.26001,3.70996-70.07007,3.59998-.45996-.01001-.81982-.39001-.81982-.84998v-6.64001c0-.47998,.38989-.87,.86987-.83997,19.75,.84998,37.02002,.91998,54.13013-.46002,21.88989-1.76001,38.56982-3.32001,68.23975-19.5-10.78979,9.39996-21.84985,21.27002-52.34985,24.69Zm155.34009-94.40002c-20.29004-2.35999-35.51001,6.57001-61.94019,36.47003,21.87012-44.70001,37.32007-45.48004,60.55005-43.53003,.51001,.04004,.94995,.40002,1.08008,.90002,.51001,1.89001,1.56982,6.34998,.31006,6.15997Z"/><path class="cls-1" d="M395.33851,257.30964l.03409-1.32524c0-12.97822-1.36729-32.22859-4.10186-57.70777-3.03844-24.32874-4.55753-43.55738-4.55753-57.72936h5.01347c6.38049-.45581,10.95975-.82472,13.69432-1.06342,3.64618-.21711,6.61919-.75968,8.89809-1.58426,2.2789-.82472,3.73282-1.34569,4.34056-1.58439,3.95006-1.43233,5.92482-3.77626,5.92482-7.09672,0-2.82147-1.21522-5.36066-3.64592-7.6177-2.4307-2.23545-5.31708-3.36404-8.68111-3.36404-3.03844,0-7.5308,.54257-13.45562,1.60612-5.92482,1.06342-9.96177,1.82296-12.0886,2.30049-.62947-14.86649-1.82322-30.55756-3.64592-47.09507-2.14855-19.81466-3.21197-35.87477-3.21197-48.13677,0-2.60436,4.25366-3.90648,12.78271-3.90648h6.40222l4.5578,.34719c3.64592,0,6.68436-.62933,9.13679-1.93158,2.4307-1.30211,3.64592-3.25542,3.64592-5.83806,0-4.49249-1.54081-7.6177-4.57899-9.39721-3.03871-1.75792-8.05191-2.64781-15.06187-2.64781-5.77302,0-9.571,.10849-11.39396,.34732-3.66791,0-7.70433,.41223-12.11006,1.23694-4.40573,.82472-5.5041,.79372-8.68949,1.78051-2.62921,.93539-1.23876,.25281-6.59831,1.87079-7.15449,1.76966-12.73057,3.90136-12.36153,12.17012,3.58075,81.21179,7.18348,162.44531,10.7645,243.6571,.4774,10.8298,9.56051,10.20368,19.26838,9.44525,2.02247-.30337,2.77117-.6573,4.39888-.6573,4.57899,0,8.06221-1.64765,10.79678-3.42729,2.73457-1.77964,4.10186-4.18862,4.10186-7.24879l.42158-5.40257Z"/><path d="M750.7718,213.14312c0,15.56086-4.8614,30.21024-14.6062,43.9047-5.16501,7.07513-11.84964,12.67449-20.07508,16.81966-8.22518,4.12358-17.34051,6.18537-27.38864,6.18537-10.96001,0-20.37895-1.54095-28.30052-4.60111-4.8614-2.12683-7.2921-4.60098-7.2921-7.44404s.91161-5.12183,2.73457-6.90147c1.82296-1.75792,4.40546-2.64768,7.74778-2.64768,3.03844,0,7.46563,.9332,13.23891,2.82134,6.40222,1.90986,10.35227,2.84306,11.87136,2.84306,5.77275,0,11.02492-1.9533,15.75624-5.83806,4.70934-3.90648,8.44215-9.0283,11.17672-15.40893,5.46914-11.80632,8.22544-22.41902,8.22544-31.85981,0-10.15689-2.06166-20.83462-6.16352-32.05493-2.71285-7.35728-6.05516-14.60607-10.00495-21.72451-.62947-.65106-1.23721-1.38901-1.75805-2.27877-11.71929-19.48919-29.88478-34.46404-41.38736-54.10503-4.25366-7.27051-8.37698-16.32054-10.63415-25.69616-2.79974-7.87812-4.31883-16.23364-4.12358-24.54585,.60774-26.43398,19.4676-49.72103,46.83452-50.28532,1.25893-.02172,2.40924,.13021,3.42921,.43408C703.09057,.26042,706.30281,0,709.68831,0c5.49087,0,10.80795,1.23707,15.99521,3.71122,5.16501,2.47415,8.81119,5.59936,10.93802,9.37562l-7.74778,7.44404c-7.92157,0-13.84665-1.17204-17.79644-3.53756-2.32208,.19525-4.53581,.69451-6.59747,1.47577,0,0,0,.02172-.02172,.02172-2.21373,.78127-4.27539,1.93158-6.20723,3.38563-.52085,.41236-1.04169,.84644-1.56254,1.30211-4.10159,3.66778-7.22693,7.8564-9.35403,12.566-1.8227,4.49249-2.73431,8.98485-2.73431,13.45562,0,8.98499,1.58426,18.12191,4.79623,27.45408,3.19051,9.31045,7.35728,18.10018,12.54427,26.36894l31.94644,49.56909c5.16527,8.50746,9.28886,18.05673,12.3273,28.66943,3.03818,10.63429,4.55753,21.24698,4.55753,31.8814Z"/><path d="M612.24728,222.34508c0,11.80632-1.51909,22.18018-4.55753,31.14345-1.82296,5.44742-4.34056,9.8097-7.53107,13.10857-3.21197,3.29873-7.5308,6.14179-13.02167,8.50746-5.16501,2.34394-11.84964,3.53756-20.07508,3.53756-4.75278,0-9.24541-.41236-13.47735-1.21535-1.77951,.36891-3.88488,.19525-6.2936-.65106-46.37911-16.47247-60.11688-61.04995-66.2804-104.82457-7.5308-53.51901-9.72281-107.51556-6.40222-161.46866,.80273-13.08684,30.25356-9.1152,32.94468,3.06003,2.23545,4.12358,3.36404,10.00509,3.36404,17.60106,0,10.87299,.75954,31.40387,2.27863,61.61411,1.51935,30.21038,2.2789,50.74113,2.2789,61.61424,.45377,5.70737-.10453,13.08968,1.26276,22.29164,1.36729,9.20209,2.89783,13.03087,3.94382,19.11236,.87923,5.11194,2.25932,11.29043,4.38615,18.95145,2.12683,7.68274,5.16501,15.40906,9.13679,23.20028,3.94979,8.24703,9.11506,15.04002,15.51728,20.35722,1.49763,1.23707,3.01698,2.34394,4.53607,3.27714,.19525,.10849,.3905,.21697,.56429,.34719,4.81796,2.88651,9.8097,4.34056,14.97471,4.34056,4.25393,0,7.83494-1.06342,10.72131-3.19025,2.88638-2.12696,4.7965-5.187,5.70784-9.20196,1.82322-6.61946,2.73457-13.10857,2.73457-19.48919v-69.03656c0-8.72443-1.06342-19.81466-3.19025-33.27028-1.82322-14.86649-2.73457-26.08679-2.73457-33.63932v-2.47415c0-3.77626-.15207-7.20534-.45567-10.26551l-.45594-10.26538c0-6.61932-.45567-16.646-1.36729-30.10176-1.21548-12.04502-1.82296-22.18018-1.82296-30.44894,0-2.60436,1.73606-4.83981,5.25217-6.72794,3.49385-1.88813,7.35701-2.84306,11.6324-2.84306l11.41569,8.16027v6.01171c0,2.82134-.6292,6.25041-1.84442,10.26538-1.21548,6.61932-1.82322,10.39559-1.82322,11.32879,0,21.48581,1.51909,51.11017,4.57926,88.87294,2.73457,39.65103,4.10186,70.44729,4.10186,92.4105Z"/><path d="M290.74408,222.34508c0,11.80632-1.51935,22.18018-4.55753,31.14345-1.82322,5.44742-4.34056,9.8097-7.5308,13.10857-3.19025,3.29873-7.5308,6.14179-12.99995,8.50746-5.18726,2.34394-11.87163,3.53756-20.0968,3.53756-9.28886,0-17.57947-1.56267-24.95821-4.6227-.02172-.02172-.04345-.02172-.06517-.02172-1.45418-.36891-2.95181-.95493-4.51435-1.7362-57.07817-29.1251-67.90811-163.18326-65.52059-251.77406,.28215-10.85139,19.03339-17.86135,27.19366-13.86811h.02172c7.81295,2.21373,11.69757,10.39572,11.69757,24.52426,0,10.87299,.75981,31.40387,2.30062,61.61411,1.51909,30.21038,2.2789,50.74113,2.2789,61.61424,.36221,5.20175,.51151,10.66271,1.87906,19.86467,1.38875,9.20209,3.02953,15.45139,3.8427,21.33708,.70989,5.13819,1.72215,11.49268,3.84898,19.1537,2.12683,7.68274,5.187,15.40906,9.13679,23.20028,3.95006,8.24703,9.13705,15.04002,15.51781,20.35722,6.38049,5.29549,13.08658,7.96489,20.07508,7.96489,4.27539,0,7.83441-1.06342,10.74277-3.19025,2.88638-2.12696,4.77451-5.187,5.68612-9.20196,1.84468-6.61946,2.75603-13.10857,2.75603-19.48919v-69.03656c0-8.72443-1.08514-19.81466-3.21197-33.27028-1.8227-14.86649-2.73457-26.08679-2.73457-33.63932v-2.47415c0-3.77626-.1518-7.20534-.45567-10.26551l-.45567-10.26538c0-6.61932-.45567-16.646-1.36729-30.10176-1.21522-12.04502-1.82296-22.18018-1.82296-30.44894,0-2.60436,1.73633-4.83981,5.2519-6.72794,3.49438-1.88813,7.37901-2.84306,11.63291-2.84306,5.9043-.81061,9.20543,2.07006,10.9503,8.25573l.4654,5.91626c0,2.82134-.60774,6.25041-1.82322,10.26538-1.21548,6.61932-1.82296,10.39559-1.82296,11.32879,0,21.48581,1.51935,51.11017,4.55753,88.87294,2.73457,39.65103,4.10186,70.44729,4.10186,92.4105Z"/><path d="M110.99011,228.00948c-7.92157-18.16522-13.39072-31.16517-16.42889-38.95653-4.27565-11.09009-8.13855-23.11339-11.63293-36.11334-3.51584-12.97836-5.40397-23.72113-5.70758-32.20699l4.55727-9.20196,5.46914-9.91819c.60774-1.41073,1.99675-4.49249,4.12358-9.20196,2.1271-4.73119,3.49412-8.26876,4.10186-10.63442,.30387-1.1719,.82472-3.88475,1.60599-8.13855,.73809-4.25366,1.12859-8.13855,1.12859-11.67611,0-6.14179-.60774-11.56749-1.82322-16.29868-2.73457-11.56762-8.83292-21.46409-18.25185-29.73284-4.5578-4.0151-10.0484-7.1403-16.42916-9.37562-6.12007-2.14855-12.76098-3.25542-19.98818-3.34231-7.59598-2.5825-18.51254,.34732-19.25036,9.1152-7.20521,85.18344-8.78947,165.57065-4.73132,250.94934,.41249,8.50746,7.54368,11.0219,14.97626,11.22415,3.53933-.15169,3.75352-.11233,6.16223-.11233,4.8614,0,8.13855-.88976,9.8097-2.64768,1.67116-1.77964,2.5176-4.55766,2.5176-8.33393V123.92299c4.55753,12.97822,10.20047,27.60588,16.88483,43.88297,8.83292,21.72451,15.51755,40.25864,20.07508,55.60253,4.57926,15.34389,6.04926,23.92352,6.96064,36.44607,.46533,2.80814,1.427,5.14951,2.89893,7.01126,5.46924,6.35889,9.47769,8.93322,15.25044,8.93322,5.49087,0,8.68111-1.88813,9.59273-5.6644,.91161-2.82147,1.36729-6.25041,1.36729-10.26551v-.7161l-13.23865-31.14358ZM72.64119,63.71935l-6.83617,30.44907c-6.09861,5.90309-11.26388,10.50407-15.51781,13.80294-.30361-2.58264-.45567-8.00833-.45567-16.27709,0-8.72456,.45567-21.00828,1.36729-36.82957l.91161-35.39724c3.03818,.2387,6.01171,1.82296,8.89809,4.77451,2.88638,2.95168,5.25217,6.55428,7.07513,10.80808,3.34205,8.96326,5.01321,16.86298,5.01321,23.72113,0,2.12683-.1518,3.77626-.45567,4.94817Z"/></g></g></svg>